<svg xmlns="http://www.w3.org/2000/svg" viewBox="0 0 200 200" fill="none">
  <circle cx="100" cy="100" r="95" fill="white"/>
  <defs>
    <radialGradient id="spaceGradient" cx="50%" cy="50%" r="50%">
      <stop offset="0%" style="stop-color:#1a1f3a;stop-opacity:1" />
      <stop offset="100%" style="stop-color:#0a0e1a;stop-opacity:1" />
    </radialGradient>
  </defs>
  <path d="M 50 80 Q 50 40, 90 40 Q 100 40, 100 50 Q 100 60, 90 60 L 60 60 Q 55 60, 55 65 L 55 75 Q 55 80, 60 80 L 90 80 Q 100 80, 100 90 Q 100 100, 90 100 L 50 100 Q 45 100, 45 95 L 45 85 Q 45 80, 50 80 Z" fill="url(#spaceGradient)"/>
  <circle cx="65" cy="50" r="1" fill="white" opacity="0.8"/>
  <circle cx="75" cy="55" r="0.5" fill="white" opacity="0.6"/>
  <circle cx="85" cy="48" r="0.8" fill="white" opacity="0.7"/>
  <circle cx="70" cy="65" r="0.6" fill="white" opacity="0.5"/>
  <circle cx="80" cy="70" r="1" fill="white" opacity="0.8"/>
  <rect x="110" y="60" width="25" height="50" rx="3" fill="#2d3748" stroke="#4a5568" stroke-width="2"/>
  <circle cx="122.5" cy="105" r="2" fill="#4a5568"/>
  <ellipse cx="122.5" cy="85" rx="35" ry="8" fill="none" stroke="#2d3748" stroke-width="3" transform="rotate(-15 122.5 85)"/>
  <ellipse cx="122.5" cy="85" rx="35" ry="8" fill="none" stroke="#2d3748" stroke-width="3" transform="rotate(15 122.5 85)"/>
</svg>
